# xmcd
#
# Track frame offsets:
#	150
#	15520
#	35790
#	53275
#	67027
#	83885
#	99687
#	116175
#	130017
#	148372
#	163432
#	178470
#
# Disc length: 2609 seconds
#
# Revision: 1
# Processed by: cddbd v1.5.2PL0 Copyright (c) Steve Scherf et al.
# Submitted via: EasyCDDAExtractor 5.0.7
#
DISCID=b40a2f0c
DTITLE=Keith Sykes - Let it roll
DYEAR=2006
DGENRE=Country
TTITLE0=Midnight In Tupelo
TTITLE1=Let It Roll
TTITLE2=Old Rock N Roller
TTITLE3=Wake Up Sleepy Head
TTITLE4=Peggy Sue
TTITLE5=That's The Way You Do It
TTITLE6=Tearing Down The House
TTITLE7=What Are We Waiting For
TTITLE8=Pictures
TTITLE9=It Just Don't Get No Better Than This
TTITLE10=You Can't Lie ABout Love
TTITLE11=You Better Be Ready To Dance
EXTD=
EXTT0=
EXTT1=
EXTT2=
EXTT3=
EXTT4=
EXTT5=
EXTT6=
EXTT7=
EXTT8=
EXTT9=
EXTT10=
EXTT11=
PLAYORDER=
